<?xml version="1.0" encoding="UTF-8"?>
<svg id="Layer_1" data-name="Layer 1" xmlns="http://www.w3.org/2000/svg" viewBox="0 0 603.13 361.21">
  <defs>
    <style>
      .cls-1 {
        font-size: 14px;
      }

      .cls-1, .cls-2, .cls-3, .cls-4, .cls-5, .cls-6, .cls-7, .cls-8, .cls-9, .cls-10 {
        font-family: MyriadPro-Regular, 'Myriad Pro';
      }

      .cls-11 {
        letter-spacing: -.01em;
      }

      .cls-12 {
        letter-spacing: -.04em;
      }

      .cls-13 {
        letter-spacing: 0em;
      }

      .cls-14 {
        letter-spacing: -.04em;
      }

      .cls-15 {
        letter-spacing: 0em;
      }

      .cls-16 {
        letter-spacing: .02em;
      }

      .cls-17 {
        letter-spacing: 0em;
      }

      .cls-2 {
        font-size: 11px;
      }

      .cls-18 {
        letter-spacing: 0em;
      }

      .cls-19, .cls-20, .cls-21 {
        font-family: MyriadPro-Bold, 'Myriad Pro';
        font-weight: 700;
      }

      .cls-19, .cls-20, .cls-21, .cls-6 {
        font-size: 12px;
      }

      .cls-19, .cls-22 {
        fill: #ffa400;
      }

      .cls-23 {
        letter-spacing: 0em;
      }

      .cls-20, .cls-24 {
        fill: #42b2ff;
      }

      .cls-25 {
        letter-spacing: 0em;
      }

      .cls-26 {
        letter-spacing: 0em;
      }

      .cls-27 {
        letter-spacing: 0em;
      }

      .cls-28 {
        letter-spacing: 0em;
      }

      .cls-29 {
        fill: #fff;
        stroke: #3a3a3a;
      }

      .cls-29, .cls-30, .cls-31, .cls-32, .cls-33, .cls-34, .cls-35, .cls-36, .cls-37, .cls-38, .cls-39, .cls-40, .cls-41, .cls-42, .cls-43, .cls-44, .cls-45, .cls-46, .cls-47, .cls-48, .cls-49, .cls-50, .cls-51, .cls-52, .cls-53, .cls-54 {
        stroke-miterlimit: 10;
      }

      .cls-29, .cls-39, .cls-42, .cls-43, .cls-44, .cls-45, .cls-46, .cls-47 {
        stroke-width: 2px;
      }

      .cls-3 {
        font-size: 12.12px;
      }

      .cls-4, .cls-10 {
        font-size: 10.9px;
      }

      .cls-55 {
        letter-spacing: 0em;
      }

      .cls-56 {
        letter-spacing: 0em;
      }

      .cls-57 {
        letter-spacing: 0em;
      }

      .cls-58 {
        letter-spacing: 0em;
      }

      .cls-59 {
        letter-spacing: 0em;
      }

      .cls-60 {
        letter-spacing: -.09em;
      }

      .cls-30 {
        stroke-dasharray: 0 1;
      }

      .cls-30, .cls-31, .cls-32, .cls-33, .cls-39, .cls-40, .cls-41, .cls-42, .cls-43, .cls-44, .cls-45, .cls-46, .cls-47, .cls-48, .cls-49, .cls-50, .cls-51, .cls-54 {
        fill: none;
      }

      .cls-30, .cls-32, .cls-40, .cls-41, .cls-48, .cls-54 {
        stroke: #000;
      }

      .cls-61 {
        letter-spacing: 0em;
      }

      .cls-5 {
        font-size: 9.69px;
      }

      .cls-31, .cls-32, .cls-33 {
        stroke-width: .75px;
      }

      .cls-31, .cls-44 {
        stroke: #686868;
      }

      .cls-33 {
        stroke: #ff83c9;
      }

      .cls-34 {
        fill: #e5c3bd;
        stroke: #ff5f2e;
      }

      .cls-35 {
        fill: #fff1e1;
        stroke: #ffae2c;
      }

      .cls-36 {
        fill: #d3d3d3;
      }

      .cls-36, .cls-46 {
        stroke: #757575;
      }

      .cls-37 {
        fill: #d2efff;
        stroke: #027cb2;
      }

      .cls-38 {
        fill: #bdffc5;
        stroke: #44c65c;
      }

      .cls-39 {
        stroke-linecap: round;
      }

      .cls-39, .cls-47 {
        stroke: #ffa400;
      }

      .cls-40 {
        stroke-dasharray: 0 0 2 2;
      }

      .cls-62 {
        letter-spacing: 0em;
      }

      .cls-63 {
        letter-spacing: 0em;
      }

      .cls-64 {
        letter-spacing: 0em;
      }

      .cls-41 {
        stroke-dasharray: 0 2;
      }

      .cls-7 {
        font-size: 8.48px;
      }

      .cls-42, .cls-53 {
        stroke: #42b2ff;
      }

      .cls-43 {
        stroke: #a0a2a3;
      }

      .cls-45 {
        stroke: #343eb7;
      }

      .cls-65 {
        letter-spacing: .06em;
      }

      .cls-66 {
        letter-spacing: 0em;
      }

      .cls-67 {
        letter-spacing: 0em;
      }

      .cls-49 {
        stroke: #00a02d;
      }

      .cls-50 {
        stroke: #565554;
      }

      .cls-68 {
        letter-spacing: -.01em;
      }

      .cls-51 {
        stroke: #bcbcbc;
        stroke-width: 11px;
      }

      .cls-69 {
        letter-spacing: -.05em;
      }

      .cls-70 {
        letter-spacing: -.01em;
      }

      .cls-8 {
        fill: #3a9b4c;
        font-size: 13.29px;
      }

      .cls-9 {
        font-size: 15.95px;
      }

      .cls-71 {
        letter-spacing: 0em;
      }

      .cls-72 {
        letter-spacing: .03em;
      }

      .cls-73, .cls-74, .cls-75, .cls-76, .cls-24, .cls-77, .cls-78, .cls-79, .cls-80, .cls-81, .cls-22 {
        stroke-width: 0px;
      }

      .cls-82 {
        letter-spacing: 0em;
      }

      .cls-83 {
        letter-spacing: 0em;
      }

      .cls-84 {
        letter-spacing: 0em;
      }

      .cls-85 {
        letter-spacing: 0em;
      }

      .cls-52 {
        stroke: #ffa233;
      }

      .cls-52, .cls-53 {
        fill: #c9c9c9;
        opacity: .38;
      }

      .cls-52, .cls-53, .cls-54 {
        stroke-width: .5px;
      }

      .cls-86 {
        letter-spacing: -.07em;
      }

      .cls-10, .cls-78 {
        fill: #00a02d;
      }

      .cls-87 {
        letter-spacing: -.01em;
      }

      .cls-74 {
        fill: #757575;
      }

      .cls-75 {
        fill: #565554;
      }

      .cls-76 {
        fill: #343eb7;
      }

      .cls-77 {
        fill: #bcbcbc;
      }

      .cls-79 {
        fill: #a0a2a3;
      }

      .cls-80 {
        fill: #ff83c9;
      }

      .cls-81 {
        fill: #686868;
      }

      .cls-88 {
        letter-spacing: -.02em;
      }

      .cls-89 {
        letter-spacing: -.02em;
      }

      .cls-90 {
        letter-spacing: 0em;
      }

      .cls-91 {
        letter-spacing: 0em;
      }

      .cls-92 {
        letter-spacing: -.03em;
      }
    </style>
  </defs>
  <g>
    <rect class="cls-42" x="18.44" y="134.72" width="108.91" height="93.93" rx="1.73" ry="1.73"/>
    <path class="cls-53" d="M30.71,166.2c10.27-2.76,16.69,16.93,19.25,13.28,1.75-2.49-9.6-11.86-8.32-16.53,1.43-5.2,6.18-6.41,5.48-15.17-.32-3.94-1.61-9.32-3.46-8.99-2.13.38,2.56,5.81-1.66,10.71-2.65,3.09-9.82,5.14-11.92,8.1-2,2.84-3.48,9.69.62,8.6Z"/>
    <path class="cls-53" d="M80.97,195.1c.69,5.12,7.62,9.11,12.36,5.13,2.33-1.96,5.02-14.41,9.67-15.78,5.17-1.53,6.66-1.1,15.09-4.93,4.24-1.93,7.76-4.69,6.51-6.09-1.44-1.61-16.69,7.42-23.08,6.42-4.02-.63-5.3-6.3-6.46-8.05-1.92-2.9-16.36,6.39-14.08,23.29Z"/>
    <path class="cls-53" d="M64.15,216.95c-1.75-5.28-6.58-5.6-7.41-9.52-.88-4.15,3.59-8.34,5.02-9.67,6.58-6.16,15.28-5.87,15.21-6.37-.08-.53-9.72-2.19-16.33,3.25-4.53,3.73-6.11,9.53-8.67,9.06-.76-.14-1.14-.74-2.06-2.12-2.43-3.65-5.06-7.16-7.59-10.75-1.79-2.54-4.84-6.51-5.27-6.24-.22.14.22,1.42,5.01,11.04,4.87,9.79,5.78,11.21,5.21,13.66-.57,2.43-1.92,3-3.72,8.24-.7,2.04-1.48,4.82-1.07,5,.89.39,4.78-12.52,10.02-12.59,5.49-.07,9.26,14.05,11.38,13.36.96-.31,1.22-3.55.29-6.35Z"/>
  </g>
  <g>
    <rect class="cls-42" x="151.27" y="26.34" width="108.91" height="93.93" rx="1.73" ry="1.73"/>
    <path class="cls-53" d="M163.54,57.82c10.27-2.76,16.69,16.93,19.25,13.28,1.75-2.49-9.6-11.86-8.32-16.53,1.43-5.2,6.18-6.41,5.48-15.17-.32-3.94-1.61-9.32-3.46-8.99-2.13.38,2.56,5.81-1.66,10.71-2.65,3.09-9.82,5.14-11.92,8.1-2,2.84-3.48,9.69.62,8.6Z"/>
    <path class="cls-53" d="M213.8,86.72c.69,5.12,7.62,9.11,12.36,5.13,2.33-1.96,5.02-14.41,9.67-15.78,5.17-1.53,6.66-1.1,15.09-4.93,4.24-1.93,7.76-4.69,6.51-6.09-1.44-1.61-16.69,7.42-23.08,6.42-4.02-.63-5.3-6.3-6.46-8.05-1.92-2.9-16.36,6.39-14.08,23.29Z"/>
    <path class="cls-53" d="M196.98,108.57c-1.75-5.28-6.58-5.6-7.41-9.52-.88-4.15,3.59-8.34,5.02-9.67,6.58-6.16,15.28-5.87,15.21-6.37-.08-.53-9.72-2.19-16.33,3.25-4.53,3.73-6.11,9.53-8.67,9.06-.76-.14-1.14-.74-2.06-2.12-2.43-3.65-5.06-7.16-7.59-10.75-1.79-2.54-4.84-6.51-5.27-6.24-.22.14.22,1.42,5.01,11.04,4.87,9.79,5.78,11.21,5.21,13.66-.57,2.43-1.92,3-3.72,8.24-.7,2.04-1.48,4.82-1.07,5,.89.39,4.78-12.52,10.02-12.59,5.49-.07,9.26,14.05,11.38,13.36.96-.31,1.22-3.55.29-6.35Z"/>
  </g>
  <g>
    <rect class="cls-47" x="10.44" y="21.89" width="108.91" height="93.93" rx="1.73" ry="1.73"/>
    <path class="cls-52" d="M22.28,39.92c8.54,6.34-2.91,23.59,1.55,23.34,3.04-.18,3.34-14.89,7.8-16.79,4.96-2.11,8.86.86,15.29-5.13,2.89-2.69,6.31-7.05,4.9-8.29-1.62-1.43-2.97,5.62-9.43,5.35-4.07-.16-10.13-4.51-13.75-4.31-3.47.19-9.76,3.3-6.35,5.83Z"/>
    <path class="cls-52" d="M66.51,43.91c-1.19,5.02,3.86,11.24,9.7,9.21,2.87-.99,9.85-11.66,14.68-11.27,5.38.43,6.62,1.36,15.85.8,4.65-.28,8.92-1.6,8.26-3.35-.77-2.02-18.24.95-23.85-2.27-3.53-2.03-2.7-7.78-3.15-9.83-.75-3.39-17.56.11-21.49,16.71Z"/>
    <path class="cls-52" d="M66,101.93c-1.88-5.24-6.72-5.44-7.65-9.33-.98-4.13,3.38-8.42,4.77-9.8,6.42-6.33,15.13-6.25,15.04-6.75-.09-.53-9.77-1.95-16.24,3.66-4.43,3.84-5.87,9.68-8.44,9.27-.76-.12-1.16-.71-2.11-2.06-2.52-3.59-5.24-7.04-7.85-10.56-1.85-2.49-5.01-6.39-5.43-6.11-.22.14.26,1.41,5.28,10.92,5.11,9.66,6.06,11.06,5.55,13.52-.5,2.44-1.85,3.05-3.51,8.33-.65,2.06-1.36,4.86-.95,5.03.9.37,4.47-12.64,9.7-12.83,5.49-.21,9.61,13.81,11.71,13.07.95-.34,1.13-3.58.13-6.36Z"/>
  </g>
  <g>
    <rect class="cls-47" x="145.23" y="20.74" width="108.91" height="93.93" rx="1.73" ry="1.73"/>
    <path class="cls-52" d="M157.07,38.77c8.54,6.34-2.91,23.59,1.55,23.34,3.04-.18,3.34-14.89,7.8-16.79,4.96-2.11,8.86.86,15.29-5.13,2.89-2.69,6.31-7.05,4.9-8.29-1.62-1.43-2.97,5.62-9.43,5.35-4.07-.16-10.13-4.51-13.75-4.31-3.47.19-9.76,3.3-6.35,5.83Z"/>
    <path class="cls-52" d="M201.3,42.76c-1.19,5.02,3.86,11.24,9.7,9.21,2.87-.99,9.85-11.66,14.68-11.27,5.38.43,6.62,1.36,15.85.8,4.65-.28,8.92-1.6,8.26-3.35-.77-2.02-18.24.95-23.85-2.27-3.53-2.03-2.7-7.78-3.15-9.83-.75-3.39-17.56.11-21.49,16.71Z"/>
    <path class="cls-52" d="M200.79,100.78c-1.88-5.24-6.72-5.44-7.65-9.33-.98-4.13,3.38-8.42,4.77-9.8,6.42-6.33,15.13-6.25,15.04-6.75-.09-.53-9.77-1.95-16.24,3.66-4.43,3.84-5.87,9.68-8.44,9.27-.76-.12-1.16-.71-2.11-2.06-2.52-3.59-5.24-7.04-7.85-10.56-1.85-2.49-5.01-6.39-5.43-6.11-.22.14.26,1.41,5.28,10.92,5.11,9.66,6.06,11.06,5.55,13.52-.5,2.44-1.85,3.05-3.51,8.33-.65,2.06-1.36,4.86-.95,5.03.9.37,4.47-12.64,9.7-12.83,5.49-.21,9.61,13.81,11.71,13.07.95-.34,1.13-3.58.13-6.36Z"/>
  </g>
  <rect class="cls-32" x="141.56" y="17.97" width="122.28" height="105.05"/>
  <g>
    <rect class="cls-42" x="479.8" y="23.32" width="108.91" height="93.93" rx="1.73" ry="1.73"/>
    <path class="cls-53" d="M492.06,54.81c10.27-2.76,16.69,16.93,19.25,13.28,1.75-2.49-9.6-11.86-8.32-16.53,1.43-5.2,6.18-6.41,5.48-15.17-.32-3.94-1.61-9.32-3.46-8.99-2.13.38,2.56,5.81-1.66,10.71-2.65,3.09-9.82,5.14-11.92,8.1-2,2.84-3.48,9.69.62,8.6Z"/>
    <path class="cls-53" d="M542.33,83.71c.69,5.12,7.62,9.11,12.36,5.13,2.33-1.96,5.02-14.41,9.67-15.78,5.17-1.53,6.66-1.1,15.09-4.93,4.24-1.93,7.76-4.69,6.51-6.09-1.44-1.61-16.69,7.42-23.08,6.42-4.02-.63-5.3-6.3-6.46-8.05-1.92-2.9-16.36,6.39-14.08,23.29Z"/>
    <path class="cls-53" d="M525.5,105.55c-1.75-5.28-6.58-5.6-7.41-9.52-.88-4.15,3.59-8.34,5.02-9.67,6.58-6.16,15.28-5.87,15.21-6.37-.08-.53-9.72-2.19-16.33,3.25-4.53,3.73-6.11,9.53-8.67,9.06-.76-.14-1.14-.74-2.06-2.12-2.43-3.65-5.06-7.16-7.59-10.75-1.79-2.54-4.84-6.51-5.27-6.24-.22.14.22,1.42,5.01,11.04,4.87,9.79,5.78,11.21,5.21,13.66-.57,2.43-1.92,3-3.72,8.24-.7,2.04-1.48,4.82-1.07,5,.89.39,4.78-12.52,10.02-12.59,5.49-.07,9.26,14.05,11.38,13.36.96-.31,1.22-3.55.29-6.35Z"/>
  </g>
  <g>
    <rect class="cls-47" x="481.8" y="24.92" width="104.89" height="90.46" rx="1.67" ry="1.67"/>
    <path class="cls-52" d="M491.64,41.22c8.54,6.34-2.91,23.59,1.55,23.34,3.04-.18,3.34-14.89,7.8-16.79,4.96-2.11,8.86.86,15.29-5.13,2.89-2.69,6.31-7.05,4.9-8.29-1.62-1.43-2.97,5.62-9.43,5.35-4.07-.16-10.13-4.51-13.75-4.31-3.47.19-9.76,3.3-6.35,5.83Z"/>
    <path class="cls-52" d="M535.86,45.21c-1.19,5.02,3.86,11.24,9.7,9.21,2.87-.99,9.85-11.66,14.68-11.27,5.38.43,6.62,1.36,15.85.8,4.65-.28,8.92-1.6,8.26-3.35-.77-2.02-18.24.95-23.85-2.27-3.53-2.03-2.7-7.78-3.15-9.83-.75-3.39-17.56.11-21.49,16.71Z"/>
    <path class="cls-52" d="M535.35,103.23c-1.88-5.24-6.72-5.44-7.65-9.33-.98-4.13,3.38-8.42,4.77-9.8,6.42-6.33,15.13-6.25,15.04-6.75-.09-.53-9.77-1.95-16.24,3.66-4.43,3.84-5.87,9.68-8.44,9.27-.76-.12-1.16-.71-2.11-2.06-2.52-3.59-5.24-7.04-7.85-10.56-1.85-2.49-5.01-6.39-5.43-6.11-.22.14.26,1.41,5.28,10.92,5.11,9.66,6.06,11.06,5.55,13.52-.5,2.44-1.85,3.05-3.51,8.33-.65,2.06-1.36,4.86-.95,5.03.9.37,4.47-12.64,9.7-12.83,5.49-.21,9.61,13.81,11.71,13.07.95-.34,1.13-3.58.13-6.36Z"/>
  </g>
  <rect class="cls-32" x="474.69" y="19.03" width="122.28" height="105.05"/>
  <text class="cls-6" transform="translate(324.81 58.67)"><tspan x="0" y="0">Optical </tspan><tspan class="cls-89" x="38.41" y="0">F</tspan><tspan x="44.05" y="0">l</tspan><tspan class="cls-67" x="46.88" y="0">o</tspan><tspan x="53.39" y="0">w</tspan></text>
  <text class="cls-1" transform="translate(298.99 35.07)"><tspan x="0" y="0">displa</tspan><tspan class="cls-59" x="34.73" y="0">c</tspan><tspan x="40.92" y="0">eme</tspan><tspan class="cls-64" x="66.63" y="0">n</tspan><tspan x="74.34" y="0">t estim</tspan><tspan class="cls-64" x="114.08" y="0">a</tspan><tspan x="120.78" y="0">tion</tspan></text>
  <g>
    <path class="cls-47" d="M254.9,28.14c2.86-.15,6.87.15,11.07,2.49,6.31,3.52,7.93,8.82,14.63,13.59,1.82,1.29,4.24,2.71,7.34,3.77"/>
    <polygon class="cls-22" points="286.3 50.55 292.1 49.09 287.94 44.79 286.3 50.55"/>
  </g>
  <g>
    <path class="cls-42" d="M259.54,79.5c2.5.15,6.02-.15,9.69-2.49,5.52-3.52,6.94-8.82,12.8-13.59,1.5-1.22,3.46-2.55,5.95-3.58"/>
    <polygon class="cls-24" points="288.15 63.05 292.1 58.55 286.23 57.38 288.15 63.05"/>
  </g>
  <g>
    <path class="cls-47" d="M475.55,28.04c-1.88.32-3.95.99-6.06,2.25-5.91,3.52-7.42,8.82-13.7,13.59-2.4,1.83-5.92,3.89-10.77,4.87"/>
    <polygon class="cls-22" points="474.46 25.21 479.85 27.81 474.9 31.18 474.46 25.21"/>
  </g>
  <g>
    <path class="cls-42" d="M474.82,78.92c-1.81-.33-3.81-1-5.85-2.24-5.79-3.52-7.27-8.82-13.41-13.59-2.35-1.83-5.8-3.89-10.55-4.87"/>
    <polygon class="cls-24" points="474.19 75.78 479.12 79.17 473.72 81.75 474.19 75.78"/>
  </g>
  <text class="cls-19" transform="translate(73.96 111.61)"><tspan x="0" y="0">f</tspan><tspan class="cls-68" x="4.09" y="0">r</tspan><tspan x="8.52" y="0">ame n</tspan></text>
  <text class="cls-19" transform="translate(485.17 111.74)"><tspan x="0" y="0">f</tspan><tspan class="cls-68" x="4.09" y="0">r</tspan><tspan x="8.52" y="0">ame n</tspan></text>
  <text class="cls-20" transform="translate(69.16 146.35)"><tspan x="0" y="0">f</tspan><tspan class="cls-68" x="4.09" y="0">r</tspan><tspan x="8.52" y="0">ame n+1</tspan></text>
  <text class="cls-20" transform="translate(529.46 36.84)"><tspan x="0" y="0">f</tspan><tspan class="cls-68" x="4.09" y="0">r</tspan><tspan x="8.52" y="0">ame n+1</tspan></text>
  <rect class="cls-32" x="292.38" y="20.74" width="151.88" height="47.54" rx="4.47" ry="4.47"/>
  <rect class="cls-32" x="7.82" y="18.71" width="122.28" height="105.05"/>
  <rect class="cls-32" x="8.19" y="127.41" width="122.28" height="105.05"/>
  <g>
    <path class="cls-48" d="M130.29,143.16c1.96-.08,8.91-.61,15.02-6.09,2.92-2.62,4.72-5.53,5.83-8.02"/>
    <polygon class="cls-73" points="154.32 131.32 152.83 123.79 147.05 128.84 154.32 131.32"/>
  </g>
  <g>
    <path class="cls-48" d="M130.29,69.09c.66,0,2.6,0,4.69,0"/>
    <polygon class="cls-73" points="133.86 72.93 140.51 69.09 133.86 65.25 133.86 72.93"/>
  </g>
  <text class="cls-21" transform="translate(166.78 15.85)"><tspan x="0" y="0">F</tspan><tspan class="cls-67" x="6.32" y="0">O</tspan><tspan x="14.84" y="0">V displa</tspan><tspan class="cls-70" x="57.36" y="0">c</tspan><tspan x="62.64" y="0">eme</tspan><tspan class="cls-23" x="85.63" y="0">n</tspan><tspan x="92.59" y="0">t</tspan></text>
  <text class="cls-21" transform="translate(474.69 15.85)"><tspan x="0" y="0">F</tspan><tspan class="cls-67" x="6.32" y="0">O</tspan><tspan x="14.84" y="0">V alignme</tspan><tspan class="cls-18" x="68.53" y="0">n</tspan><tspan x="75.49" y="0">t</tspan></text>
  <rect class="cls-48" x="321.25" y="44.5" width="110.43" height="19.04"/>
  <g>
    <line class="cls-46" x1="480.13" y1="265.45" x2="480.13" y2="247.43"/>
    <polygon class="cls-74" points="485.61 249.04 480.13 239.54 474.64 249.04 485.61 249.04"/>
  </g>
  <g>
    <g>
      <line class="cls-48" x1="250.94" y1="175.85" x2="264.46" y2="175.85"/>
      <polygon class="cls-73" points="263.66 178.59 268.41 175.85 263.66 173.11 263.66 178.59"/>
    </g>
    <g>
      <line class="cls-31" x1="289.89" y1="273.76" x2="327.24" y2="273.76"/>
      <polygon class="cls-81" points="326.63 275.82 330.2 273.76 326.63 271.71 326.63 275.82"/>
    </g>
    <g>
      <line class="cls-31" x1="337.29" y1="273.76" x2="350.51" y2="273.76"/>
      <polygon class="cls-81" points="349.91 275.82 353.47 273.76 349.91 271.71 349.91 275.82"/>
    </g>
    <g>
      <line class="cls-31" x1="358.98" y1="273.76" x2="372.2" y2="273.76"/>
      <polygon class="cls-81" points="371.6 275.82 375.16 273.76 371.6 271.71 371.6 275.82"/>
    </g>
    <g>
      <line class="cls-31" x1="401.41" y1="273.76" x2="414.63" y2="273.76"/>
      <polygon class="cls-81" points="414.03 275.82 417.59 273.76 414.03 271.71 414.03 275.82"/>
    </g>
    <g>
      <path class="cls-44" d="M424.06,273.76c.73.07,2.4.26,4.2.89,15.76,5.52,2.5,31.06,18.79,37.7.67.27,1.56.58,2.73.85"/>
      <polygon class="cls-81" points="447.66 318.32 457.65 313.78 448.73 307.4 447.66 318.32"/>
    </g>
    <g>
      <line class="cls-48" x1="324.2" y1="211.06" x2="324.2" y2="217.67"/>
      <polygon class="cls-73" points="321.45 216.87 324.2 221.62 326.94 216.87 321.45 216.87"/>
    </g>
    <g>
      <line class="cls-48" x1="347.24" y1="211.06" x2="347.24" y2="217.67"/>
      <polygon class="cls-73" points="344.5 216.87 347.24 221.62 349.98 216.87 344.5 216.87"/>
    </g>
    <g>
      <line class="cls-48" x1="369.2" y1="211.06" x2="369.2" y2="217.67"/>
      <polygon class="cls-73" points="366.46 216.87 369.2 221.62 371.95 216.87 366.46 216.87"/>
    </g>
    <g>
      <line class="cls-48" x1="411.72" y1="211.06" x2="411.72" y2="217.67"/>
      <polygon class="cls-73" points="408.98 216.87 411.72 221.62 414.46 216.87 408.98 216.87"/>
    </g>
    <rect class="cls-37" x="211.48" y="155.81" width="10.27" height="40.09"/>
    <rect class="cls-37" x="224.51" y="155.81" width="10.27" height="40.09"/>
    <rect class="cls-37" x="237.72" y="155.81" width="10.27" height="40.09"/>
    <rect class="cls-35" x="211.48" y="204.67" width="10.27" height="40.09"/>
    <rect class="cls-35" x="224.51" y="204.67" width="10.27" height="40.09"/>
    <rect class="cls-35" x="237.72" y="204.67" width="10.27" height="40.09"/>
    <rect class="cls-34" x="211.48" y="261.5" width="10.27" height="40.09"/>
    <rect class="cls-34" x="224.51" y="261.5" width="10.27" height="40.09"/>
    <rect class="cls-34" x="237.72" y="261.5" width="10.27" height="40.09"/>
    <g>
      <polyline class="cls-48" points="250.94 228.05 284.56 228.05 284.56 190.62"/>
      <polygon class="cls-73" points="287.65 191.52 284.56 186.17 281.47 191.52 287.65 191.52"/>
    </g>
    <g>
      <polyline class="cls-49" points="297.56 323.7 297.56 202.25 310.37 202.25"/>
      <polygon class="cls-78" points="309.46 205.34 314.82 202.25 309.46 199.16 309.46 205.34"/>
    </g>
    <g>
      <polyline class="cls-54" points="329.05 248.91 333.41 248.91 333.41 268"/>
      <polygon class="cls-73" points="331.87 267.55 333.41 270.22 334.96 267.55 331.87 267.55"/>
    </g>
    <g>
      <polyline class="cls-54" points="352.21 248.91 356.83 248.91 356.83 268"/>
      <polygon class="cls-73" points="355.28 267.55 356.83 270.22 358.38 267.55 355.28 267.55"/>
    </g>
    <g>
      <polyline class="cls-54" points="373.96 248.91 378.33 248.91 378.33 268"/>
      <polygon class="cls-73" points="376.78 267.55 378.33 270.22 379.87 267.55 376.78 267.55"/>
    </g>
    <g>
      <polyline class="cls-54" points="416.31 248.91 420.67 248.91 420.67 268"/>
      <polygon class="cls-73" points="419.13 267.55 420.67 270.22 422.22 267.55 419.13 267.55"/>
    </g>
    <g>
      <polyline class="cls-48" points="301.15 175.85 324.2 175.85 324.2 189.02"/>
      <polygon class="cls-73" points="321.11 188.12 324.2 193.47 327.29 188.12 321.11 188.12"/>
    </g>
    <g>
      <polyline class="cls-48" points="324.2 175.85 347.24 175.85 347.24 189.02"/>
      <polygon class="cls-73" points="344.15 188.12 347.24 193.47 350.33 188.12 344.15 188.12"/>
    </g>
    <g>
      <polyline class="cls-48" points="345.91 175.85 368.96 175.85 368.96 189.02"/>
      <polygon class="cls-73" points="365.86 188.12 368.96 193.47 372.05 188.12 365.86 188.12"/>
    </g>
    <rect class="cls-46" x="270.46" y="168.51" width="29.07" height="13.82"/>
    <g>
      <circle class="cls-38" cx="324.2" cy="202.34" r="8.13"/>
      <text class="cls-9" transform="translate(320.25 207.82)"><tspan x="0" y="0">L</tspan></text>
    </g>
    <g>
      <circle class="cls-38" cx="347.24" cy="202.34" r="8.13"/>
      <text class="cls-9" transform="translate(343.29 207.82)"><tspan x="0" y="0">L</tspan></text>
    </g>
    <g>
      <circle class="cls-38" cx="369.2" cy="202.34" r="8.13"/>
      <text class="cls-9" transform="translate(365.25 207.82)"><tspan x="0" y="0">L</tspan></text>
    </g>
    <g>
      <polyline class="cls-48" points="388.68 175.85 411.72 175.85 411.72 189.02"/>
      <polygon class="cls-73" points="408.63 188.12 411.72 193.47 414.81 188.12 408.63 188.12"/>
    </g>
    <g>
      <circle class="cls-38" cx="411.97" cy="202.34" r="8.13"/>
      <text class="cls-9" transform="translate(408.02 207.82)"><tspan x="0" y="0">L</tspan></text>
    </g>
    <g>
      <circle class="cls-73" cx="386.81" cy="202.34" r="1.76"/>
      <circle class="cls-73" cx="391.8" cy="202.34" r="1.76"/>
      <circle class="cls-73" cx="391.8" cy="202.34" r="1.76"/>
      <circle class="cls-73" cx="396.98" cy="202.34" r="1.76"/>
    </g>
    <g>
      <circle class="cls-75" cx="386.81" cy="273.76" r="1.76"/>
      <circle class="cls-75" cx="391.8" cy="273.76" r="1.76"/>
      <circle class="cls-75" cx="391.8" cy="273.76" r="1.76"/>
      <circle class="cls-75" cx="396.98" cy="273.76" r="1.76"/>
    </g>
    <text class="cls-8" transform="translate(310.55 195.9)"><tspan x="0" y="0">1</tspan></text>
    <text class="cls-8" transform="translate(335.22 195.9)"><tspan x="0" y="0">2</tspan></text>
    <text class="cls-8" transform="translate(358.16 195.9)"><tspan x="0" y="0">3</tspan></text>
    <text class="cls-8" transform="translate(400.2 195.9)"><tspan x="0" y="0">n</tspan></text>
    <line class="cls-30" x1="378.33" y1="175.85" x2="388.68" y2="175.85"/>
    <g>
      <polyline class="cls-40" points="250.94 282.46 320.23 282.46 320.23 263"/>
      <polygon class="cls-73" points="323.32 263.9 320.23 258.55 317.14 263.9 323.32 263.9"/>
    </g>
    <g>
      <polyline class="cls-40" points="320.23 282.46 343.28 282.46 343.28 263"/>
      <polygon class="cls-73" points="346.37 263.9 343.28 258.55 340.18 263.9 346.37 263.9"/>
    </g>
    <g>
      <polyline class="cls-40" points="341.95 282.46 364.99 282.46 364.99 263"/>
      <polygon class="cls-73" points="368.08 263.9 364.99 258.55 361.9 263.9 368.08 263.9"/>
    </g>
    <g>
      <polyline class="cls-40" points="384.71 282.46 407.76 282.46 407.76 263"/>
      <polygon class="cls-73" points="410.85 263.9 407.76 258.55 404.67 263.9 410.85 263.9"/>
    </g>
    <line class="cls-41" x1="374.36" y1="282.46" x2="384.71" y2="282.46"/>
    <rect class="cls-36" x="316.39" y="227.37" width="7.64" height="29.63"/>
    <rect class="cls-36" x="339.43" y="227.37" width="7.64" height="29.63"/>
    <rect class="cls-36" x="361.15" y="227.37" width="7.64" height="29.63"/>
    <rect class="cls-36" x="318.49" y="225.27" width="7.64" height="29.63"/>
    <rect class="cls-36" x="341.53" y="225.27" width="7.64" height="29.63"/>
    <rect class="cls-36" x="363.25" y="225.27" width="7.64" height="29.63"/>
    <rect class="cls-36" x="320.89" y="222.86" width="7.64" height="29.63"/>
    <rect class="cls-36" x="343.94" y="222.86" width="7.64" height="29.63"/>
    <rect class="cls-36" x="365.65" y="222.86" width="7.64" height="29.63"/>
    <rect class="cls-36" x="403.58" y="227.37" width="7.64" height="29.63"/>
    <rect class="cls-36" x="405.68" y="225.27" width="7.64" height="29.63"/>
    <rect class="cls-36" x="408.09" y="222.86" width="7.64" height="29.63"/>
    <circle class="cls-31" cx="333.41" cy="273.76" r="3.36"/>
    <line class="cls-31" x1="333.41" y1="270.4" x2="333.41" y2="277.12"/>
    <line class="cls-31" x1="330.05" y1="273.76" x2="336.77" y2="273.76"/>
    <circle class="cls-31" cx="356.83" cy="273.76" r="3.36"/>
    <line class="cls-31" x1="356.83" y1="270.4" x2="356.83" y2="277.12"/>
    <line class="cls-31" x1="353.47" y1="273.76" x2="360.19" y2="273.76"/>
    <circle class="cls-31" cx="378.33" cy="273.76" r="3.36"/>
    <line class="cls-31" x1="378.33" y1="270.4" x2="378.33" y2="277.12"/>
    <line class="cls-31" x1="374.97" y1="273.76" x2="381.69" y2="273.76"/>
    <circle class="cls-31" cx="420.67" cy="273.76" r="3.36"/>
    <line class="cls-31" x1="420.67" y1="270.4" x2="420.67" y2="277.12"/>
    <line class="cls-31" x1="417.31" y1="273.76" x2="424.03" y2="273.76"/>
    <text class="cls-3" transform="translate(198.23 145.63)"><tspan class="cls-28" x="0" y="0">R</tspan><tspan x="6.57" y="0">ecu</tspan><tspan class="cls-26" x="24.74" y="0">r</tspan><tspan class="cls-82" x="28.75" y="0">r</tspan><tspan x="32.59" y="0">e</tspan><tspan class="cls-66" x="38.66" y="0">n</tspan><tspan x="45.34" y="0">t </tspan><tspan class="cls-57" x="51.92" y="0">A</tspan><tspan x="59.29" y="0">ll </tspan><tspan class="cls-92" x="67.58" y="0">P</tspan><tspan x="73.71" y="0">airs </tspan><tspan class="cls-92" x="93.71" y="0">F</tspan><tspan x="99.3" y="0">ield</tspan><tspan class="cls-14" x="117.9" y="0"> </tspan><tspan class="cls-69" x="119.97" y="0">T</tspan><tspan class="cls-71" x="125.45" y="0">r</tspan><tspan x="129.35" y="0">ans</tspan><tspan class="cls-87" x="146.71" y="0">f</tspan><tspan x="150.09" y="0">o</tspan><tspan class="cls-26" x="156.74" y="0">r</tspan><tspan x="160.75" y="0">ms (</tspan><tspan class="cls-91" x="181.66" y="0">R</tspan><tspan x="188.24" y="0">AF</tspan><tspan class="cls-65" x="201.56" y="0">T</tspan><tspan class="cls-55" x="208.3" y="0">)</tspan></text>
    <text class="cls-7" transform="translate(307.53 308.6)"><tspan x="0" y="0">Zacha</tspan><tspan class="cls-16" x="21.37" y="0">r</tspan><tspan class="cls-15" x="24.36" y="0">y</tspan><tspan class="cls-12" x="28.35" y="0"> </tspan><tspan class="cls-86" x="29.8" y="0">T</tspan><tspan x="33.42" y="0">eed and Jia </tspan><tspan class="cls-27" x="74.88" y="0">D</tspan><tspan x="80.56" y="0">eng (2022)</tspan></text>
    <rect class="cls-49" x="247.99" y="323.7" width="179.5" height="19.13"/>
    <text class="cls-5" transform="translate(250.94 336.93)"><tspan x="0" y="0">MPI Si</tspan><tspan class="cls-62" x="24.37" y="0">n</tspan><tspan class="cls-58" x="29.71" y="0">t</tspan><tspan x="32.86" y="0">el </tspan><tspan class="cls-88" x="42.06" y="0">F</tspan><tspan class="cls-56" x="46.61" y="0">l</tspan><tspan class="cls-61" x="48.9" y="0">o</tspan><tspan class="cls-56" x="54.15" y="0">w D</tspan><tspan class="cls-62" x="69.8" y="0">a</tspan><tspan class="cls-25" x="74.43" y="0">taset (Butler e</tspan><tspan class="cls-13" x="130.04" y="0">t</tspan><tspan x="133.22" y="0">. a</tspan><tspan class="cls-85" x="141.96" y="0">l</tspan><tspan class="cls-17" x="144.15" y="0">. 2012)</tspan></text>
    <text class="cls-10" transform="translate(154.24 336.93)"><tspan x="0" y="0">p</tspan><tspan class="cls-83" x="6.2" y="0">r</tspan><tspan class="cls-72" x="9.66" y="0">e</tspan><tspan x="15.43" y="0">-t</tspan><tspan class="cls-90" x="22.39" y="0">r</tspan><tspan x="25.9" y="0">ained </tspan><tspan class="cls-84" x="53.68" y="0">w</tspan><tspan x="61.6" y="0">eig</tspan><tspan class="cls-63" x="75.71" y="0">h</tspan><tspan x="81.71" y="0">ts</tspan></text>
  </g>
  <rect class="cls-50" x="198.23" y="148.66" width="231.94" height="163.92" rx="7.28" ry="7.28"/>
  <g>
    <path class="cls-39" d="M207.74,227.46c-.96.63-17.34,11.83-16.6,31.05.52,13.34,8.94,21.87,10.97,23.82,1.04.47,2.08.93,3.12,1.4"/>
    <polygon class="cls-22" points="202.61 286.81 210.35 286.01 205.79 279.71 202.61 286.81"/>
  </g>
  <text class="cls-4" transform="translate(282.26 277.24)"><tspan x="0" y="0">0</tspan></text>
  <g>
    <rect class="cls-32" x="461.69" y="267.24" width="99.62" height="85.58"/>
    <g>
      <g>
        <line class="cls-33" x1="468.72" y1="271.17" x2="473.46" y2="275.46"/>
        <polygon class="cls-80" points="471.04 276.95 476.38 278.1 474.7 272.9 471.04 276.95"/>
      </g>
      <g>
        <line class="cls-33" x1="479.84" y1="271.17" x2="484.58" y2="275.46"/>
        <polygon class="cls-80" points="482.16 276.95 487.5 278.1 485.82 272.9 482.16 276.95"/>
      </g>
      <g>
        <line class="cls-33" x1="490.95" y1="271.17" x2="495.69" y2="275.46"/>
        <polygon class="cls-80" points="493.27 276.95 498.61 278.1 496.93 272.9 493.27 276.95"/>
      </g>
      <g>
        <line class="cls-33" x1="502.07" y1="271.17" x2="506.82" y2="275.46"/>
        <polygon class="cls-80" points="504.39 276.95 509.73 278.1 508.05 272.9 504.39 276.95"/>
      </g>
      <g>
        <line class="cls-33" x1="513.48" y1="271.17" x2="518.22" y2="275.46"/>
        <polygon class="cls-80" points="515.79 276.95 521.13 278.1 519.46 272.9 515.79 276.95"/>
      </g>
      <g>
        <line class="cls-33" x1="524.6" y1="271.17" x2="529.34" y2="275.46"/>
        <polygon class="cls-80" points="526.92 276.95 532.25 278.1 530.58 272.9 526.92 276.95"/>
      </g>
      <g>
        <line class="cls-33" x1="535.71" y1="271.17" x2="540.45" y2="275.46"/>
        <polygon class="cls-80" points="538.03 276.95 543.36 278.1 541.69 272.9 538.03 276.95"/>
      </g>
      <g>
        <line class="cls-33" x1="546.83" y1="271.17" x2="551.57" y2="275.46"/>
        <polygon class="cls-80" points="549.15 276.95 554.49 278.1 552.81 272.9 549.15 276.95"/>
      </g>
      <g>
        <line class="cls-33" x1="468.72" y1="282.65" x2="473.46" y2="286.94"/>
        <polygon class="cls-80" points="471.04 288.43 476.38 289.58 474.7 284.38 471.04 288.43"/>
      </g>
      <g>
        <line class="cls-33" x1="479.84" y1="282.65" x2="484.58" y2="286.94"/>
        <polygon class="cls-80" points="482.16 288.43 487.5 289.58 485.82 284.38 482.16 288.43"/>
      </g>
      <g>
        <line class="cls-33" x1="490.95" y1="282.65" x2="495.69" y2="286.94"/>
        <polygon class="cls-80" points="493.27 288.43 498.61 289.58 496.93 284.38 493.27 288.43"/>
      </g>
      <g>
        <line class="cls-33" x1="502.07" y1="282.65" x2="506.82" y2="286.94"/>
        <polygon class="cls-80" points="504.39 288.43 509.73 289.58 508.05 284.38 504.39 288.43"/>
      </g>
      <g>
        <line class="cls-33" x1="513.48" y1="282.65" x2="518.22" y2="286.94"/>
        <polygon class="cls-80" points="515.79 288.43 521.13 289.58 519.46 284.38 515.79 288.43"/>
      </g>
      <g>
        <line class="cls-33" x1="524.6" y1="282.65" x2="529.34" y2="286.94"/>
        <polygon class="cls-80" points="526.92 288.43 532.25 289.58 530.58 284.38 526.92 288.43"/>
      </g>
      <g>
        <line class="cls-33" x1="535.71" y1="282.65" x2="540.45" y2="286.94"/>
        <polygon class="cls-80" points="538.03 288.43 543.36 289.58 541.69 284.38 538.03 288.43"/>
      </g>
      <g>
        <line class="cls-33" x1="546.83" y1="282.65" x2="551.57" y2="286.94"/>
        <polygon class="cls-80" points="549.15 288.43 554.49 289.58 552.81 284.38 549.15 288.43"/>
      </g>
      <g>
        <line class="cls-33" x1="468.72" y1="294.13" x2="473.46" y2="298.42"/>
        <polygon class="cls-80" points="471.04 299.91 476.38 301.06 474.7 295.86 471.04 299.91"/>
      </g>
      <g>
        <line class="cls-33" x1="479.84" y1="294.13" x2="484.58" y2="298.42"/>
        <polygon class="cls-80" points="482.16 299.91 487.5 301.06 485.82 295.86 482.16 299.91"/>
      </g>
      <g>
        <line class="cls-33" x1="490.95" y1="294.13" x2="495.69" y2="298.42"/>
        <polygon class="cls-80" points="493.27 299.91 498.61 301.06 496.93 295.86 493.27 299.91"/>
      </g>
      <g>
        <line class="cls-33" x1="502.07" y1="294.13" x2="506.82" y2="298.42"/>
        <polygon class="cls-80" points="504.39 299.91 509.73 301.06 508.05 295.86 504.39 299.91"/>
      </g>
      <g>
        <line class="cls-33" x1="513.48" y1="294.13" x2="518.22" y2="298.42"/>
        <polygon class="cls-80" points="515.79 299.91 521.13 301.06 519.46 295.86 515.79 299.91"/>
      </g>
      <g>
        <line class="cls-33" x1="524.6" y1="294.13" x2="529.34" y2="298.42"/>
        <polygon class="cls-80" points="526.92 299.91 532.25 301.06 530.58 295.86 526.92 299.91"/>
      </g>
      <g>
        <line class="cls-33" x1="535.71" y1="294.13" x2="540.45" y2="298.42"/>
        <polygon class="cls-80" points="538.03 299.91 543.36 301.06 541.69 295.86 538.03 299.91"/>
      </g>
      <g>
        <line class="cls-33" x1="546.83" y1="294.13" x2="551.57" y2="298.42"/>
        <polygon class="cls-80" points="549.15 299.91 554.49 301.06 552.81 295.86 549.15 299.91"/>
      </g>
      <g>
        <line class="cls-33" x1="468.72" y1="305.61" x2="473.46" y2="309.9"/>
        <polygon class="cls-80" points="471.04 311.39 476.38 312.54 474.7 307.34 471.04 311.39"/>
      </g>
      <g>
        <line class="cls-33" x1="479.84" y1="305.61" x2="484.58" y2="309.9"/>
        <polygon class="cls-80" points="482.16 311.39 487.5 312.54 485.82 307.34 482.16 311.39"/>
      </g>
      <g>
        <line class="cls-33" x1="490.95" y1="305.61" x2="495.69" y2="309.9"/>
        <polygon class="cls-80" points="493.27 311.39 498.61 312.54 496.93 307.34 493.27 311.39"/>
      </g>
      <g>
        <line class="cls-33" x1="502.07" y1="305.61" x2="506.82" y2="309.9"/>
        <polygon class="cls-80" points="504.39 311.39 509.73 312.54 508.05 307.34 504.39 311.39"/>
      </g>
      <g>
        <line class="cls-33" x1="513.48" y1="305.61" x2="518.22" y2="309.9"/>
        <polygon class="cls-80" points="515.79 311.39 521.13 312.54 519.46 307.34 515.79 311.39"/>
      </g>
      <g>
        <line class="cls-33" x1="524.6" y1="305.61" x2="529.34" y2="309.9"/>
        <polygon class="cls-80" points="526.92 311.39 532.25 312.54 530.58 307.34 526.92 311.39"/>
      </g>
      <g>
        <line class="cls-33" x1="535.71" y1="305.61" x2="540.45" y2="309.9"/>
        <polygon class="cls-80" points="538.03 311.39 543.36 312.54 541.69 307.34 538.03 311.39"/>
      </g>
      <g>
        <line class="cls-33" x1="546.83" y1="305.61" x2="551.57" y2="309.9"/>
        <polygon class="cls-80" points="549.15 311.39 554.49 312.54 552.81 307.34 549.15 311.39"/>
      </g>
      <g>
        <line class="cls-33" x1="468.72" y1="317.09" x2="473.46" y2="321.38"/>
        <polygon class="cls-80" points="471.04 322.87 476.38 324.02 474.7 318.82 471.04 322.87"/>
      </g>
      <g>
        <line class="cls-33" x1="479.84" y1="317.09" x2="484.58" y2="321.38"/>
        <polygon class="cls-80" points="482.16 322.87 487.5 324.02 485.82 318.82 482.16 322.87"/>
      </g>
      <g>
        <line class="cls-33" x1="490.95" y1="317.09" x2="495.69" y2="321.38"/>
        <polygon class="cls-80" points="493.27 322.87 498.61 324.02 496.93 318.82 493.27 322.87"/>
      </g>
      <g>
        <line class="cls-33" x1="502.07" y1="317.09" x2="506.82" y2="321.38"/>
        <polygon class="cls-80" points="504.39 322.87 509.73 324.02 508.05 318.82 504.39 322.87"/>
      </g>
      <g>
        <line class="cls-33" x1="513.48" y1="317.09" x2="518.22" y2="321.38"/>
        <polygon class="cls-80" points="515.79 322.87 521.13 324.02 519.46 318.82 515.79 322.87"/>
      </g>
      <g>
        <line class="cls-33" x1="524.6" y1="317.09" x2="529.34" y2="321.38"/>
        <polygon class="cls-80" points="526.92 322.87 532.25 324.02 530.58 318.82 526.92 322.87"/>
      </g>
      <g>
        <line class="cls-33" x1="535.71" y1="317.09" x2="540.45" y2="321.38"/>
        <polygon class="cls-80" points="538.03 322.87 543.36 324.02 541.69 318.82 538.03 322.87"/>
      </g>
      <g>
        <line class="cls-33" x1="546.83" y1="317.09" x2="551.57" y2="321.38"/>
        <polygon class="cls-80" points="549.15 322.87 554.49 324.02 552.81 318.82 549.15 322.87"/>
      </g>
      <g>
        <line class="cls-33" x1="468.72" y1="328.57" x2="473.46" y2="332.86"/>
        <polygon class="cls-80" points="471.04 334.35 476.38 335.5 474.7 330.3 471.04 334.35"/>
      </g>
      <g>
        <line class="cls-33" x1="479.84" y1="328.57" x2="484.58" y2="332.86"/>
        <polygon class="cls-80" points="482.16 334.35 487.5 335.5 485.82 330.3 482.16 334.35"/>
      </g>
      <g>
        <line class="cls-33" x1="490.95" y1="328.57" x2="495.69" y2="332.86"/>
        <polygon class="cls-80" points="493.27 334.35 498.61 335.5 496.93 330.3 493.27 334.35"/>
      </g>
      <g>
        <line class="cls-33" x1="502.07" y1="328.57" x2="506.82" y2="332.86"/>
        <polygon class="cls-80" points="504.39 334.35 509.73 335.5 508.05 330.3 504.39 334.35"/>
      </g>
      <g>
        <line class="cls-33" x1="513.48" y1="328.57" x2="518.22" y2="332.86"/>
        <polygon class="cls-80" points="515.79 334.35 521.13 335.5 519.46 330.3 515.79 334.35"/>
      </g>
      <g>
        <line class="cls-33" x1="524.6" y1="328.57" x2="529.34" y2="332.86"/>
        <polygon class="cls-80" points="526.92 334.35 532.25 335.5 530.58 330.3 526.92 334.35"/>
      </g>
      <g>
        <line class="cls-33" x1="535.71" y1="328.57" x2="540.45" y2="332.86"/>
        <polygon class="cls-80" points="538.03 334.35 543.36 335.5 541.69 330.3 538.03 334.35"/>
      </g>
      <g>
        <line class="cls-33" x1="546.83" y1="328.57" x2="551.57" y2="332.86"/>
        <polygon class="cls-80" points="549.15 334.35 554.49 335.5 552.81 330.3 549.15 334.35"/>
      </g>
      <g>
        <line class="cls-33" x1="468.72" y1="339.5" x2="473.46" y2="343.79"/>
        <polygon class="cls-80" points="471.04 345.28 476.38 346.42 474.7 341.23 471.04 345.28"/>
      </g>
      <g>
        <line class="cls-33" x1="479.84" y1="339.5" x2="484.58" y2="343.79"/>
        <polygon class="cls-80" points="482.16 345.28 487.5 346.42 485.82 341.23 482.16 345.28"/>
      </g>
      <g>
        <line class="cls-33" x1="490.95" y1="339.5" x2="495.69" y2="343.79"/>
        <polygon class="cls-80" points="493.27 345.28 498.61 346.42 496.93 341.23 493.27 345.28"/>
      </g>
      <g>
        <line class="cls-33" x1="502.07" y1="339.5" x2="506.82" y2="343.79"/>
        <polygon class="cls-80" points="504.39 345.28 509.73 346.42 508.05 341.23 504.39 345.28"/>
      </g>
      <g>
        <line class="cls-33" x1="513.48" y1="339.5" x2="518.22" y2="343.79"/>
        <polygon class="cls-80" points="515.79 345.28 521.13 346.42 519.46 341.23 515.79 345.28"/>
      </g>
      <g>
        <line class="cls-33" x1="524.6" y1="339.5" x2="529.34" y2="343.79"/>
        <polygon class="cls-80" points="526.92 345.28 532.25 346.42 530.58 341.23 526.92 345.28"/>
      </g>
      <g>
        <line class="cls-33" x1="535.71" y1="339.5" x2="540.45" y2="343.79"/>
        <polygon class="cls-80" points="538.03 345.28 543.36 346.42 541.69 341.23 538.03 345.28"/>
      </g>
      <g>
        <line class="cls-33" x1="546.83" y1="339.5" x2="551.57" y2="343.79"/>
        <polygon class="cls-80" points="549.15 345.28 554.49 346.42 552.81 341.23 549.15 345.28"/>
      </g>
    </g>
    <g>
      <line class="cls-45" x1="531.45" y1="285.22" x2="534.95" y2="305.11"/>
      <polygon class="cls-76" points="528.44 304.38 536.51 314.01 540.81 302.21 528.44 304.38"/>
    </g>
    <g>
      <line class="cls-45" x1="489.99" y1="284.08" x2="490.2" y2="290.58"/>
      <polygon class="cls-76" points="483.86 288.95 490.51 299.62 496.42 288.53 483.86 288.95"/>
    </g>
    <g>
      <line class="cls-45" x1="496.35" y1="323.06" x2="493.24" y2="325.4"/>
      <polygon class="cls-76" points="490.93 319.27 486.01 330.83 498.48 329.32 490.93 319.27"/>
    </g>
  </g>
  <g>
    <rect class="cls-32" x="461.69" y="153.25" width="99.62" height="85.58"/>
    <g>
      <g>
        <line class="cls-33" x1="468.72" y1="157.19" x2="473.46" y2="161.48"/>
        <polygon class="cls-80" points="471.04 162.96 476.38 164.11 474.7 158.92 471.04 162.96"/>
      </g>
      <g>
        <line class="cls-33" x1="479.84" y1="157.19" x2="484.58" y2="161.48"/>
        <polygon class="cls-80" points="482.16 162.96 487.5 164.11 485.82 158.92 482.16 162.96"/>
      </g>
      <g>
        <line class="cls-33" x1="490.95" y1="157.19" x2="495.69" y2="161.48"/>
        <polygon class="cls-80" points="493.27 162.96 498.61 164.11 496.93 158.92 493.27 162.96"/>
      </g>
      <g>
        <line class="cls-33" x1="502.07" y1="157.19" x2="506.82" y2="161.48"/>
        <polygon class="cls-80" points="504.39 162.96 509.73 164.11 508.05 158.92 504.39 162.96"/>
      </g>
      <g>
        <line class="cls-33" x1="513.48" y1="157.19" x2="518.22" y2="161.48"/>
        <polygon class="cls-80" points="515.79 162.96 521.13 164.11 519.46 158.92 515.79 162.96"/>
      </g>
      <g>
        <line class="cls-33" x1="524.6" y1="157.19" x2="529.34" y2="161.48"/>
        <polygon class="cls-80" points="526.92 162.96 532.25 164.11 530.58 158.92 526.92 162.96"/>
      </g>
      <g>
        <line class="cls-33" x1="535.71" y1="157.19" x2="540.45" y2="161.48"/>
        <polygon class="cls-80" points="538.03 162.96 543.36 164.11 541.69 158.92 538.03 162.96"/>
      </g>
      <g>
        <line class="cls-33" x1="546.83" y1="157.19" x2="551.57" y2="161.48"/>
        <polygon class="cls-80" points="549.15 162.96 554.49 164.11 552.81 158.92 549.15 162.96"/>
      </g>
      <g>
        <line class="cls-33" x1="468.72" y1="168.67" x2="473.46" y2="172.96"/>
        <polygon class="cls-80" points="471.04 174.45 476.38 175.59 474.7 170.4 471.04 174.45"/>
      </g>
      <g>
        <line class="cls-33" x1="479.84" y1="168.67" x2="484.58" y2="172.96"/>
        <polygon class="cls-80" points="482.16 174.45 487.5 175.59 485.82 170.4 482.16 174.45"/>
      </g>
      <g>
        <line class="cls-33" x1="490.95" y1="168.67" x2="495.69" y2="172.96"/>
        <polygon class="cls-80" points="493.27 174.45 498.61 175.59 496.93 170.4 493.27 174.45"/>
      </g>
      <g>
        <line class="cls-33" x1="502.07" y1="168.67" x2="506.82" y2="172.96"/>
        <polygon class="cls-80" points="504.39 174.45 509.73 175.59 508.05 170.4 504.39 174.45"/>
      </g>
      <g>
        <line class="cls-33" x1="513.48" y1="168.67" x2="518.22" y2="172.96"/>
        <polygon class="cls-80" points="515.79 174.45 521.13 175.59 519.46 170.4 515.79 174.45"/>
      </g>
      <g>
        <line class="cls-33" x1="524.6" y1="168.67" x2="529.34" y2="172.96"/>
        <polygon class="cls-80" points="526.92 174.45 532.25 175.59 530.58 170.4 526.92 174.45"/>
      </g>
      <g>
        <line class="cls-33" x1="535.71" y1="168.67" x2="540.45" y2="172.96"/>
        <polygon class="cls-80" points="538.03 174.45 543.36 175.59 541.69 170.4 538.03 174.45"/>
      </g>
      <g>
        <line class="cls-33" x1="546.83" y1="168.67" x2="551.57" y2="172.96"/>
        <polygon class="cls-80" points="549.15 174.45 554.49 175.59 552.81 170.4 549.15 174.45"/>
      </g>
      <g>
        <line class="cls-33" x1="468.72" y1="180.15" x2="473.46" y2="184.44"/>
        <polygon class="cls-80" points="471.04 185.93 476.38 187.07 474.7 181.88 471.04 185.93"/>
      </g>
      <g>
        <line class="cls-33" x1="479.84" y1="180.15" x2="484.58" y2="184.44"/>
        <polygon class="cls-80" points="482.16 185.93 487.5 187.07 485.82 181.88 482.16 185.93"/>
      </g>
      <g>
        <line class="cls-33" x1="490.95" y1="180.15" x2="495.69" y2="184.44"/>
        <polygon class="cls-80" points="493.27 185.93 498.61 187.07 496.93 181.88 493.27 185.93"/>
      </g>
      <g>
        <line class="cls-33" x1="502.07" y1="180.15" x2="506.82" y2="184.44"/>
        <polygon class="cls-80" points="504.39 185.93 509.73 187.07 508.05 181.88 504.39 185.93"/>
      </g>
      <g>
        <line class="cls-33" x1="513.48" y1="180.15" x2="518.22" y2="184.44"/>
        <polygon class="cls-80" points="515.79 185.93 521.13 187.07 519.46 181.88 515.79 185.93"/>
      </g>
      <g>
        <line class="cls-33" x1="524.6" y1="180.15" x2="529.34" y2="184.44"/>
        <polygon class="cls-80" points="526.92 185.93 532.25 187.07 530.58 181.88 526.92 185.93"/>
      </g>
      <g>
        <line class="cls-33" x1="535.71" y1="180.15" x2="540.45" y2="184.44"/>
        <polygon class="cls-80" points="538.03 185.93 543.36 187.07 541.69 181.88 538.03 185.93"/>
      </g>
      <g>
        <line class="cls-33" x1="546.83" y1="180.15" x2="551.57" y2="184.44"/>
        <polygon class="cls-80" points="549.15 185.93 554.49 187.07 552.81 181.88 549.15 185.93"/>
      </g>
      <g>
        <line class="cls-33" x1="468.72" y1="191.63" x2="473.46" y2="195.92"/>
        <polygon class="cls-80" points="471.04 197.41 476.38 198.55 474.7 193.36 471.04 197.41"/>
      </g>
      <g>
        <line class="cls-33" x1="479.84" y1="191.63" x2="484.58" y2="195.92"/>
        <polygon class="cls-80" points="482.16 197.41 487.5 198.55 485.82 193.36 482.16 197.41"/>
      </g>
      <g>
        <line class="cls-33" x1="490.95" y1="191.63" x2="495.69" y2="195.92"/>
        <polygon class="cls-80" points="493.27 197.41 498.61 198.55 496.93 193.36 493.27 197.41"/>
      </g>
      <g>
        <line class="cls-33" x1="502.07" y1="191.63" x2="506.82" y2="195.92"/>
        <polygon class="cls-80" points="504.39 197.41 509.73 198.55 508.05 193.36 504.39 197.41"/>
      </g>
      <g>
        <line class="cls-33" x1="513.48" y1="191.63" x2="518.22" y2="195.92"/>
        <polygon class="cls-80" points="515.79 197.41 521.13 198.55 519.46 193.36 515.79 197.41"/>
      </g>
      <g>
        <line class="cls-33" x1="524.6" y1="191.63" x2="529.34" y2="195.92"/>
        <polygon class="cls-80" points="526.92 197.41 532.25 198.55 530.58 193.36 526.92 197.41"/>
      </g>
      <g>
        <line class="cls-33" x1="535.71" y1="191.63" x2="540.45" y2="195.92"/>
        <polygon class="cls-80" points="538.03 197.41 543.36 198.55 541.69 193.36 538.03 197.41"/>
      </g>
      <g>
        <line class="cls-33" x1="546.83" y1="191.63" x2="551.57" y2="195.92"/>
        <polygon class="cls-80" points="549.15 197.41 554.49 198.55 552.81 193.36 549.15 197.41"/>
      </g>
      <g>
        <line class="cls-33" x1="468.72" y1="203.11" x2="473.46" y2="207.4"/>
        <polygon class="cls-80" points="471.04 208.89 476.38 210.03 474.7 204.84 471.04 208.89"/>
      </g>
      <g>
        <line class="cls-33" x1="479.84" y1="203.11" x2="484.58" y2="207.4"/>
        <polygon class="cls-80" points="482.16 208.89 487.5 210.03 485.82 204.84 482.16 208.89"/>
      </g>
      <g>
        <line class="cls-33" x1="490.95" y1="203.11" x2="495.69" y2="207.4"/>
        <polygon class="cls-80" points="493.27 208.89 498.61 210.03 496.93 204.84 493.27 208.89"/>
      </g>
      <g>
        <line class="cls-33" x1="502.07" y1="203.11" x2="506.82" y2="207.4"/>
        <polygon class="cls-80" points="504.39 208.89 509.73 210.03 508.05 204.84 504.39 208.89"/>
      </g>
      <g>
        <line class="cls-33" x1="513.48" y1="203.11" x2="518.22" y2="207.4"/>
        <polygon class="cls-80" points="515.79 208.89 521.13 210.03 519.46 204.84 515.79 208.89"/>
      </g>
      <g>
        <line class="cls-33" x1="524.6" y1="203.11" x2="529.34" y2="207.4"/>
        <polygon class="cls-80" points="526.92 208.89 532.25 210.03 530.58 204.84 526.92 208.89"/>
      </g>
      <g>
        <line class="cls-33" x1="535.71" y1="203.11" x2="540.45" y2="207.4"/>
        <polygon class="cls-80" points="538.03 208.89 543.36 210.03 541.69 204.84 538.03 208.89"/>
      </g>
      <g>
        <line class="cls-33" x1="546.83" y1="203.11" x2="551.57" y2="207.4"/>
        <polygon class="cls-80" points="549.15 208.89 554.49 210.03 552.81 204.84 549.15 208.89"/>
      </g>
      <g>
        <line class="cls-33" x1="468.72" y1="214.59" x2="473.46" y2="218.88"/>
        <polygon class="cls-80" points="471.04 220.37 476.38 221.51 474.7 216.32 471.04 220.37"/>
      </g>
      <g>
        <line class="cls-33" x1="479.84" y1="214.59" x2="484.58" y2="218.88"/>
        <polygon class="cls-80" points="482.16 220.37 487.5 221.51 485.82 216.32 482.16 220.37"/>
      </g>
      <g>
        <line class="cls-33" x1="490.95" y1="214.59" x2="495.69" y2="218.88"/>
        <polygon class="cls-80" points="493.27 220.37 498.61 221.51 496.93 216.32 493.27 220.37"/>
      </g>
      <g>
        <line class="cls-33" x1="502.07" y1="214.59" x2="506.82" y2="218.88"/>
        <polygon class="cls-80" points="504.39 220.37 509.73 221.51 508.05 216.32 504.39 220.37"/>
      </g>
      <g>
        <line class="cls-33" x1="513.48" y1="214.59" x2="518.22" y2="218.88"/>
        <polygon class="cls-80" points="515.79 220.37 521.13 221.51 519.46 216.32 515.79 220.37"/>
      </g>
      <g>
        <line class="cls-33" x1="524.6" y1="214.59" x2="529.34" y2="218.88"/>
        <polygon class="cls-80" points="526.92 220.37 532.25 221.51 530.58 216.32 526.92 220.37"/>
      </g>
      <g>
        <line class="cls-33" x1="535.71" y1="214.59" x2="540.45" y2="218.88"/>
        <polygon class="cls-80" points="538.03 220.37 543.36 221.51 541.69 216.32 538.03 220.37"/>
      </g>
      <g>
        <line class="cls-33" x1="546.83" y1="214.59" x2="551.57" y2="218.88"/>
        <polygon class="cls-80" points="549.15 220.37 554.49 221.51 552.81 216.32 549.15 220.37"/>
      </g>
      <g>
        <line class="cls-33" x1="468.72" y1="225.52" x2="473.46" y2="229.8"/>
        <polygon class="cls-80" points="471.04 231.29 476.38 232.44 474.7 227.24 471.04 231.29"/>
      </g>
      <g>
        <line class="cls-33" x1="479.84" y1="225.52" x2="484.58" y2="229.8"/>
        <polygon class="cls-80" points="482.16 231.29 487.5 232.44 485.82 227.24 482.16 231.29"/>
      </g>
      <g>
        <line class="cls-33" x1="490.95" y1="225.52" x2="495.69" y2="229.8"/>
        <polygon class="cls-80" points="493.27 231.29 498.61 232.44 496.93 227.24 493.27 231.29"/>
      </g>
      <g>
        <line class="cls-33" x1="502.07" y1="225.52" x2="506.82" y2="229.8"/>
        <polygon class="cls-80" points="504.39 231.29 509.73 232.44 508.05 227.24 504.39 231.29"/>
      </g>
      <g>
        <line class="cls-33" x1="513.48" y1="225.52" x2="518.22" y2="229.8"/>
        <polygon class="cls-80" points="515.79 231.29 521.13 232.44 519.46 227.24 515.79 231.29"/>
      </g>
      <g>
        <line class="cls-33" x1="524.6" y1="225.52" x2="529.34" y2="229.8"/>
        <polygon class="cls-80" points="526.92 231.29 532.25 232.44 530.58 227.24 526.92 231.29"/>
      </g>
      <g>
        <line class="cls-33" x1="535.71" y1="225.52" x2="540.45" y2="229.8"/>
        <polygon class="cls-80" points="538.03 231.29 543.36 232.44 541.69 227.24 538.03 231.29"/>
      </g>
      <g>
        <line class="cls-33" x1="546.83" y1="225.52" x2="551.57" y2="229.8"/>
        <polygon class="cls-80" points="549.15 231.29 554.49 232.44 552.81 227.24 549.15 231.29"/>
      </g>
    </g>
  </g>
  <text class="cls-5" transform="translate(486.19 262.97)"><tspan x="0" y="0">G</tspan><tspan class="cls-11" x="6.26" y="0">r</tspan><tspan x="9.33" y="0">oup motion </tspan></text>
  <g>
    <line class="cls-51" x1="324.2" y1="100.21" x2="324.2" y2="68.93"/>
    <polygon class="cls-77" points="342.3 94.91 324.2 126.26 306.1 94.91 342.3 94.91"/>
  </g>
  <g>
    <path class="cls-43" d="M467.92,153.69c-.1-1.8-.39-5.9-1.31-10.3-8.1-38.67-45.54-6.14-55.27-46.11-.82-3.36-1.89-9.08-2.12-18.14"/>
    <polygon class="cls-79" points="414.75 80.73 409.25 71.24 403.78 80.75 414.75 80.73"/>
  </g>
  <rect class="cls-29" x="418.36" y="107.17" width="33.59" height="22.07" rx="4" ry="4"/>
  <text class="cls-2" transform="translate(420.67 123.02)"><tspan x="0" y="0"></tspan><tspan class="cls-60" x="6.82" y="0">Y</tspan><tspan x="11.73" y="0">, X</tspan></text>
</svg>